<svg xmlns="http://www.w3.org/2000/svg" xmlns:xlink="http://www.w3.org/1999/xlink" version="1.1" x="0px" y="0px" viewBox="0 0 60.002 75" style="enable-background:new 0 0 60.002 60;" xml:space="preserve"><g><polygon points="6,60 8,60 8,41.966 6,40.766  "/><path d="M6,30.173c0.949,0.339,1.677,1.144,1.913,2.139L8,32.351V20.708c0-4.026-2.065-7.744-5.411-9.918   C3.318,8.139,4.71,5.704,6.707,3.707L5.293,2.293C1.88,5.706,0,10.244,0,15.071V21h2v-5.929c0-0.73,0.066-1.448,0.161-2.159   C4.555,14.76,6,17.63,6,20.708V30.173z"/><path d="M28,25.615c-1.175-0.603-1.918-1.767-1.987-3.079C24.806,23.233,24,24.534,24,26v8h4V25.615z"/><rect x="58" y="26" width="2" height="2"/><rect x="54" y="26" width="2" height="2"/><rect x="38" y="36" width="4" height="2"/><path d="M34,33.9c0.687-0.09,1.363-0.266,2-0.544v-2.382c-0.582,0.441-1.263,0.753-2,0.91V33.9z"/><path d="M30,33.357c0.637,0.278,1.313,0.453,2,0.544v-2.016c-0.737-0.156-1.418-0.469-2-0.91V33.357z"/><path d="M27.211,7.992c0.933-0.063,1.768-0.589,2.292-1.443l0.364-0.595l1.065,0.213C33.869,6.754,36,9.354,36,12.348   c0,1.975-0.942,3.859-2.521,5.043l-4.806,3.604C28.252,21.312,28,21.814,28,22.342c0,0.642,0.356,1.218,0.931,1.505L29.236,24   h7.184l2.102-3.677C39.488,18.629,40,16.702,40,14.753C40,7.721,34.279,2,27.247,2c-0.934,0-1.809,0.374-2.43,1.026   c-0.563,0.591-0.852,1.346-0.813,2.124c0.039,0.809,0.396,1.552,1.003,2.092C25.612,7.78,26.389,8.048,27.211,7.992z M27,4   c0.552,0,1,0.448,1,1s-0.448,1-1,1c-0.552,0-1-0.448-1-1S26.448,4,27,4z"/><path d="M36,26h-6v1c0,1.654,1.346,3,3,3s3-1.346,3-3V26z"/><rect x="50" y="26" width="2" height="2"/><path d="M57.117,46.387C58.922,45.184,60,43.17,60,41c0-3.859-3.141-7-7-7s-7,3.141-7,7c0,2.17,1.078,4.184,2.883,5.387   l2.345,1.563C49.785,45.921,49,43.495,49,41c0-2.209,1.791-4,4-4s4,1.791,4,4c0,2.495-0.785,4.921-2.228,6.95L57.117,46.387z"/><rect x="51.993" y="50" width="2.007" height="2"/><path d="M42,14.753c0,2.297-0.603,4.565-1.742,6.563L38,25.265V34h4V24h18v-0.683C60,10.46,49.54,0,36.683,0   c-1.778,0-3.527,0.224-5.24,0.62C37.547,2.438,42,8.082,42,14.753z"/><path d="M44,35.755v1.992l0.376,0.693c0.368-1.237,0.996-2.36,1.819-3.312L44,35.755z"/><path d="M44,33.674l3.504-1.001l-0.038-0.114c-0.186-0.558-0.425-1.088-0.7-1.594L44,31.755V33.674z"/><path d="M44,27.79v1.884l1.569-0.448C45.104,28.691,44.575,28.214,44,27.79z"/><path d="M47.149,28H48v-2h-3.073C45.754,26.576,46.503,27.242,47.149,28z"/><rect x="24" y="36" width="4" height="2"/><polygon points="38,58 40,58 40,52.802 38,54.469  "/><path d="M22.023,58h8.614l9.6-8h-16.26C22.823,52.518,22.152,55.235,22.023,58z"/><path d="M40.261,41.835L40.72,40H38c-1.103,0-2-0.897-2-2v-2.5c-0.967,0.322-1.983,0.5-3,0.5s-2.033-0.178-3-0.5V38   c0,1.103-0.897,2-2,2h-2.72l0.459,1.836C25.912,42.525,26,43.237,26,43.95c0,1.412-0.359,2.801-1.014,4.05h16.029   C40.358,46.745,40,45.359,40,43.95C40,43.237,40.088,42.525,40.261,41.835z M33,46c-0.552,0-1-0.448-1-1c0-0.552,0.448-1,1-1   s1,0.448,1,1C34,45.552,33.552,46,33,46z"/><polygon points="51.847,54 51.181,58 54.819,58 54.164,54  "/><rect x="46" y="50" width="4" height="2"/><rect x="56" y="50" width="4.001" height="2"/><path d="M42,51.135V58h1.977c-0.115-2.47-0.66-4.901-1.594-7.183L42,51.135z"/><path d="M22,27.79c-0.575,0.424-1.104,0.901-1.569,1.436L22,29.674V27.79z"/><path d="M18.534,32.559l-0.038,0.114L22,33.674v-1.919l-2.766-0.79C18.959,31.471,18.72,32.001,18.534,32.559z"/><polygon points="36,58 36,56.136 33.763,58  "/><path d="M23.678,8.736c-0.713-0.634-1.204-1.441-1.464-2.332c-2.98,1.327-5.283,3.737-6.455,6.711   c2.417-1.88,5.146-3.322,8.063-4.274C23.776,8.803,23.723,8.776,23.678,8.736z"/><path d="M6,33c0-0.552-0.448-1-1-1s-1,0.448-1,1v4c0,0.552,0.448,1,1,1s1-0.448,1-1V33z"/><path d="M22,38v-2.245l-4.137-1.182l-1.263,3.789L8,34.539V37c0,0.459-0.112,0.889-0.297,1.278l6.361,4.771   C14.883,43.662,15.896,44,16.919,44c1.595,0,3.074-0.792,3.958-2.118l1.674-2.511C22.212,39.012,22,38.531,22,38z"/></g><text x="0" y="75" fill="#000000" font-size="5px" font-weight="bold" font-family="'Helvetica Neue', Helvetica, Arial-Unicode, Arial, Sans-serif">Created by Eucalyp</text><text x="0" y="80" fill="#000000" font-size="5px" font-weight="bold" font-family="'Helvetica Neue', Helvetica, Arial-Unicode, Arial, Sans-serif">from the Noun Project</text></svg>